<?xml version="1.0" encoding="utf-8"?>
<svg version="1.1" id="group" xmlns="http://www.w3.org/2000/svg" xmlns:xlink="http://www.w3.org/1999/xlink" x="0px" y="0px"
	 viewBox="0 0 1024 1024" style="enable-background:new 0 0 1024 1024;" xml:space="preserve">
<style type="text/css">
	.st0{fill:#111111;}@media(prefers-color-scheme:dark){.st0{fill:#EEEEEE;}}
</style>
<g>
	<path class="st0" d="M577.5,412.7h174.6c6.9,0,11.7-6.9,9.3-13.3L645.2,85.6c-2.6-9.7-7.9-18-15.8-25.1c-7.9-6.9-19-10.5-33.1-10.5
		H427.5c-14.1,0-25.1,3.6-33.1,10.5c-7.9,7.1-13.3,15.4-15.8,25.1l-314,848.8c-1,3.6-1.4,7.5-1.4,11.9c0,7.1,2.6,13.5,7.9,19.2
		S83,974,90.9,974h137.2c13.3,0,22.8-3,29.1-9.3c6.1-6.1,10.1-11.9,11.9-17.2l51.9-135c3-7.7,10.3-12.7,18.4-12.7h126.3
		c5.5,0,9.9-4.4,9.9-9.9L475,639.4c0-5.5-4.4-9.9-9.9-9.9h-76.2c-6.9,0-11.7-6.7-9.3-13.3l123.1-340.9c3.2-8.7,15.4-8.7,18.6,0
		l46.9,130.9C569.6,410.1,573.4,412.7,577.5,412.7z"/>
	<path class="st0" d="M959.4,934.4L795.7,491.9c-1.4-4-5.1-6.5-9.3-6.5H610.6c-6.9,0-11.7,6.7-9.3,13.3l42,117.6
		c2.4,6.5-2.4,13.3-9.3,13.3h-75.6c-5.5,0-9.9,4.4-9.9,9.9v150.5c0,5.5,4.4,9.9,9.9,9.9h126.3c8.1,0,15.4,4.9,18.4,12.7l51.9,135
		c1.8,5.3,5.7,11.1,11.9,17.2c6.1,6.1,15.8,9.3,29.1,9.3h137.2c7.9,0,14.5-2.8,19.8-8.5c5.3-5.7,7.9-12.1,7.9-19.2
		C960.6,941.9,960.2,938,959.4,934.4z"/>
</g>
</svg>
